<svg xmlns="http://www.w3.org/2000/svg" viewBox="0 0 24 24">
  <g stroke="#2e7d32" stroke-width="1.5" fill="none" stroke-linecap="round" stroke-linejoin="round">
    <!-- Camera body -->
    <path d="M23 19C23 19.5304 22.7893 20.0391 22.4142 20.4142C22.0391 20.7893 21.5304 21 21 21H3C2.46957 21 1.96086 20.7893 1.58579 20.4142C1.21071 20.0391 1 19.5304 1 19V8C1 7.46957 1.21071 6.96086 1.58579 6.58579C1.96086 6.21071 2.46957 6 3 6H7L9 3H15L17 6H21C21.5304 6 22.0391 6.21071 22.4142 6.58579C22.7893 6.96086 23 7.46957 23 8V19Z" />
    
    <!-- Camera lens -->
    <circle cx="12" cy="13" r="4" />
    
    <!-- Camera flash -->
    <circle cx="19" cy="9" r="1" fill="#2e7d32" />
  </g>
</svg>
