<svg xmlns="http://www.w3.org/2000/svg" viewBox="0 0 24 24">
  <g stroke="#2e7d32" stroke-width="1.5" fill="none" stroke-linecap="round" stroke-linejoin="round">
    <!-- Central plant/sprout (community growing together) -->
    <path d="M12 3c-1.5 1.5-2 3-2 4.5c0 1.5 0.7 2.5 2 2.5c1.3 0 2-1 2-2.5c0-1.5-0.5-3-2-4.5z" fill="#8bc34a" />
    <path d="M12 10v2" />
    
    <!-- Circular arrangement of people icons around the plant -->
    <circle cx="7.5" cy="14" r="2" />
    <path d="M7.5 16v2" />
    <path d="M6 19.5h3" />
    
    <circle cx="16.5" cy="14" r="2" />
    <path d="M16.5 16v2" />
    <path d="M15 19.5h3" />
    
    <circle cx="12" cy="17" r="2" />
    <path d="M12 19v2" />
    <path d="M10.5 22.5h3" />
    
    <!-- Connection lines representing community -->
    <path d="M9.5 14l1.5 1.5" stroke-dasharray="0.5,1" />
    <path d="M14.5 14l-1.5 1.5" stroke-dasharray="0.5,1" />
    
    <!-- Platform/ground -->
    <path d="M5 22.5h14" />
  </g>
</svg>
