<svg xmlns="http://www.w3.org/2000/svg" viewBox="0 0 24 24">
  <g stroke="#2e7d32" stroke-width="1.5" fill="none" stroke-linecap="round" stroke-linejoin="round">
    <!-- Bowl -->
    <path d="M3 10C3 8.34315 4.34315 7 6 7H18C19.6569 7 21 8.34315 21 10V10C21 10 21 14 12 14C3 14 3 10 3 10Z" />
    <path d="M4 14L3.20711 19.5858C3.07715 20.8398 4.08621 22 5.34835 22H18.6517C19.9138 22 20.9229 20.8398 20.7929 19.5858L20 14" />
    
    <!-- Ingredient sprig -->
    <path d="M12 4V7" />
    <path d="M10 3L12 4L14 3" />
    <path d="M9 5L12 7L15 5" />
  </g>
</svg>
