<svg xmlns="http://www.w3.org/2000/svg" viewBox="0 0 24 24">
  <g stroke="#2e7d32" stroke-width="1.5" fill="none" stroke-linecap="round" stroke-linejoin="round">
    <!-- Note page -->
    <path d="M14 2H6C5.46957 2 4.96086 2.21071 4.58579 2.58579C4.21071 2.96086 4 3.46957 4 4V20C4 20.5304 4.21071 21.0391 4.58579 21.4142C4.96086 21.7893 5.46957 22 6 22H18C18.5304 22 19.0391 21.7893 19.4142 21.4142C19.7893 21.0391 20 20.5304 20 20V8L14 2Z" />
    
    <!-- Note fold -->
    <path d="M14 2V8H20" />
    
    <!-- Note content lines -->
    <line x1="8" y1="13" x2="16" y2="13" />
    <line x1="8" y1="17" x2="16" y2="17" />
    <line x1="10" y1="9" x2="12" y2="9" />
  </g>
</svg>
