<svg xmlns="http://www.w3.org/2000/svg" viewBox="0 0 512 512">
  <!-- Background for PWA icon (invisible in transparent mode) -->
  <rect width="512" height="512" rx="128" fill="#ffffff" opacity="0" />
  
  <!-- Notebook outline -->
  <path d="M127 64 C113.8 64 103 74.8 103 88 L103 424 C103 437.2 113.8 448 127 448 L385 448 C398.2 448 409 437.2 409 424 L409 88 C409 74.8 398.2 64 385 64 L127 64 Z" fill="none" stroke="#2e7d32" stroke-width="24" stroke-linejoin="round" />
  
  <!-- Notebook spiral binding -->
  <path d="M140 112 L120 112" stroke="#2e7d32" stroke-width="24" stroke-linecap="round" />
  <path d="M140 160 L120 160" stroke="#2e7d32" stroke-width="24" stroke-linecap="round" />
  <path d="M140 208 L120 208" stroke="#2e7d32" stroke-width="24" stroke-linecap="round" />
  <path d="M140 256 L120 256" stroke="#2e7d32" stroke-width="24" stroke-linecap="round" />
  <path d="M140 304 L120 304" stroke="#2e7d32" stroke-width="24" stroke-linecap="round" />
  <path d="M140 352 L120 352" stroke="#2e7d32" stroke-width="24" stroke-linecap="round" />
  <path d="M140 400 L120 400" stroke="#2e7d32" stroke-width="24" stroke-linecap="round" />
  
  <!-- Leaf shape -->
  <path d="M290 364 C230 364 190 324 190 264 C190 204 230 164 290 164 L290 364 Z" fill="#8bc34a" stroke="#2e7d32" stroke-width="16" stroke-linejoin="round" />
  
  <!-- Leaf vein -->
  <path d="M240 314 L290 264" stroke="#2e7d32" stroke-width="16" stroke-linecap="round" />
  
  <!-- Leaf stem -->
  <path d="M290 364 L290 400" stroke="#2e7d32" stroke-width="16" stroke-linecap="round" />
</svg>
